<svg viewBox="0 0 512 512" xmlns="http://www.w3.org/2000/svg">
  <defs>
    <linearGradient id="bar" x1="0%" y1="0%" x2="0%" y2="100%">
      <stop offset="0%" stop-color="#e2d6f5"/>
      <stop offset="100%" stop-color="#a78bfa"/>
    </linearGradient>
    <linearGradient id="ring" x1="0%" y1="0%" x2="100%" y2="100%">
      <stop offset="0%" stop-color="#5b4a8a"/>
      <stop offset="50%" stop-color="#7c6bb0"/>
      <stop offset="100%" stop-color="#5b4a8a"/>
    </linearGradient>
  </defs>
  <circle cx="256" cy="256" r="175" fill="none" stroke="url(#ring)" stroke-width="6" opacity="0.6"/>
  <g opacity="0.3" stroke="#7c6bb0" stroke-width="2.5" stroke-linecap="round">
    <line x1="256" y1="66" x2="256" y2="88"/>
    <line x1="256" y1="424" x2="256" y2="446"/>
    <line x1="66" y1="256" x2="88" y2="256"/>
    <line x1="424" y1="256" x2="446" y2="256"/>
  </g>
  <circle cx="256" cy="256" r="138" fill="#170e2e" stroke="#3a2a60" stroke-width="1.5"/>
  <rect x="176" y="228" width="10" height="56" rx="5" fill="url(#bar)" opacity="0.7"/>
  <rect x="198" y="210" width="10" height="92" rx="5" fill="url(#bar)" opacity="0.8"/>
  <rect x="220" y="192" width="10" height="128" rx="5" fill="url(#bar)" opacity="0.9"/>
  <rect x="244" y="178" width="10" height="156" rx="5" fill="url(#bar)" opacity="1"/>
  <rect x="268" y="192" width="10" height="128" rx="5" fill="url(#bar)" opacity="0.9"/>
  <rect x="290" y="210" width="10" height="92" rx="5" fill="url(#bar)" opacity="0.8"/>
  <rect x="312" y="228" width="10" height="56" rx="5" fill="url(#bar)" opacity="0.7"/>
</svg>